<svg xmlns="http://www.w3.org/2000/svg" viewBox="0 0 1641.6 1125.6"><defs><style>.cls-1{fill:#231f20;}.cls-2{fill:none;}</style></defs><g id="Layer_2" data-name="Layer 2"><g id="Layer_1-2" data-name="Layer 1"><path class="cls-1" d="M978,736.28v79.28h57V803H991.42V781.76h38V769.85h-38v-21h42.31V736.28Zm43-53.59q-7.65,6.87-22.06,6.86H984.16V635.23h13.39q31.19,0,31.19,27.22Q1028.74,675.83,1021.08,682.69ZM998,622.87H970.78v79.27h26.31q22.92,0,34-10.77t11.11-29.26q0-18.48-11.45-28.87T998,622.87Zm29.15-54.21L981.1,509.45H967.72v79.28H981.1V530.89L1026,588.73h14.52V509.45h-13.38ZM989.72,444.92l14.41-32.66,14.4,32.66ZM1024,457.28l7.94,18h14.29L1011.27,396H997l-34.93,79.28h14.29l7.94-18Zm-8.73-162.18a27,27,0,0,1,9.53,5.22l7.14-10.1a39.65,39.65,0,0,0-12.93-7,47.52,47.52,0,0,0-15.08-2.49q-11.8,0-19.79,5.95t-8,17q0,11,7,16.33a30,30,0,0,0,8.06,4.59,110.45,110.45,0,0,0,13.27,3.86q8.73,2.1,12.3,4.65a8.27,8.27,0,0,1,3.57,7.14,8.68,8.68,0,0,1-3.8,7.37q-3.79,2.79-10.26,2.78-12.93,0-24.95-10.43L972.94,350q14.4,12.83,33,12.82,12.7,0,20.53-6.47a20.82,20.82,0,0,0,7.82-16.84q0-10.38-6.18-15.71t-18.37-8.28q-12.19-2.94-15.94-5.5a8.37,8.37,0,0,1-3.74-7.37,8,8,0,0,1,3.74-7.2,17.57,17.57,0,0,1,9.59-2.38A36.74,36.74,0,0,1,1015.24,295.1Z"/><path class="cls-1" d="M1282.16,325.67a14,14,0,0,1,4.92,2.69l3.69-5.21a20.46,20.46,0,0,0-6.68-3.63,24.47,24.47,0,0,0-7.79-1.29,16.6,16.6,0,0,0-10.21,3.08,10.23,10.23,0,0,0-4.13,8.75q0,5.69,3.63,8.43a15.21,15.21,0,0,0,4.15,2.37,56.33,56.33,0,0,0,6.86,2,19.54,19.54,0,0,1,6.35,2.41,4.25,4.25,0,0,1,1.84,3.68,4.48,4.48,0,0,1-2,3.81,8.77,8.77,0,0,1-5.3,1.43q-6.67,0-12.88-5.38l-4.33,5.21a24.87,24.87,0,0,0,17,6.61q6.56,0,10.59-3.33a10.74,10.74,0,0,0,4-8.7q0-5.35-3.19-8.11t-9.48-4.27c-4.2-1-6.94-2-8.23-2.84a4.33,4.33,0,0,1-1.93-3.81,4.12,4.12,0,0,1,1.93-3.72,9.17,9.17,0,0,1,5-1.22A19,19,0,0,1,1282.16,325.67ZM1213,328.19l14.23,28.39h3.86l14.29-28.39v32h6.91V319.23h-10.72l-12.35,25.7-12.36-25.7H1206.1v40.93H1213Zm-45.2-9v40.93h29.45v-6.5h-22.54v-11h19.61v-6.15h-19.61V325.73h21.84v-6.5Zm-7.5,6.32v-6.32h-31.73v6.32H1141v34.61h6.91V325.55Zm-46.25.12a14,14,0,0,1,4.92,2.69l3.69-5.21a20.46,20.46,0,0,0-6.68-3.63,24.47,24.47,0,0,0-7.79-1.29,16.6,16.6,0,0,0-10.21,3.08,10.23,10.23,0,0,0-4.13,8.75q0,5.69,3.63,8.43a15.21,15.21,0,0,0,4.15,2.37,56.33,56.33,0,0,0,6.86,2,19.54,19.54,0,0,1,6.35,2.41,4.25,4.25,0,0,1,1.84,3.68,4.48,4.48,0,0,1-2,3.81,8.77,8.77,0,0,1-5.3,1.43q-6.67,0-12.88-5.38l-4.33,5.21a24.89,24.89,0,0,0,17,6.61q6.56,0,10.59-3.33a10.74,10.74,0,0,0,4-8.7q0-5.35-3.19-8.11c-2.12-1.83-5.29-3.26-9.48-4.27s-6.94-2-8.23-2.84a4.33,4.33,0,0,1-1.93-3.81,4.12,4.12,0,0,1,1.93-3.72,9.17,9.17,0,0,1,5-1.22A19,19,0,0,1,1114.06,325.67ZM1075.65,344l15.22-24.77h-7.55l-11.19,18.62L1061,319.23h-7.55L1068.62,344v16.16h7Z"/><path class="cls-1" d="M1418.76,461.74,1395,431.18h-6.91V472.1H1395V442.24l23.18,29.86h7.5V431.18h-6.91Zm-39.41-10.39a20.25,20.25,0,0,0-6.2-15.11,22.45,22.45,0,0,0-30.68,0,21.48,21.48,0,0,0,0,30.21,22.45,22.45,0,0,0,30.68,0A20.23,20.23,0,0,0,1379.35,451.35Zm-7.08,0a14.57,14.57,0,0,1-4.19,10.51,14.36,14.36,0,0,1-20.55,0,15.28,15.28,0,0,1,0-21,14.33,14.33,0,0,1,20.55,0A14.57,14.57,0,0,1,1372.27,451.35Zm-51.64,20.75h6.91V431.18h-6.91Zm-7.5-34.6v-6.32H1281.4v6.32h12.41v34.6h6.91V437.5Zm-59.49,18.91,7.44-16.86,7.44,16.86Zm17.69,6.38,4.1,9.31h7.37l-18-40.92h-7.38l-18,40.92h7.38l4.09-9.31Zm-76.94-22.66,14.23,28.4h3.86l14.29-28.4v32h6.91V431.18H1223l-12.35,25.7-12.36-25.7h-10.77V472.1h6.91Zm-15.63,11.22a20.26,20.26,0,0,0-6.21-15.11,22.45,22.45,0,0,0-30.68,0,21.48,21.48,0,0,0,0,30.21,22.45,22.45,0,0,0,30.68,0A20.23,20.23,0,0,0,1178.76,451.35Zm-7.09,0a14.57,14.57,0,0,1-4.18,10.51,14.37,14.37,0,0,1-20.56,0,15.3,15.3,0,0,1,0-21,14.34,14.34,0,0,1,20.56,0A14.57,14.57,0,0,1,1171.67,451.35Zm-39.75-13.85v-6.32h-31.74v6.32h12.41v34.6h6.91V437.5Zm-66.46,16.34V431.18h-6.91v22.95q0,8.83,4.86,13.61a18.68,18.68,0,0,0,24.94,0q4.86-4.77,4.86-13.61V431.18h-6.91v22.66c0,3.74-.93,6.71-2.81,8.9a10.49,10.49,0,0,1-15.22,0Q1065.47,459.46,1065.46,453.84Z"/><path class="cls-1" d="M1344.52,551.37a14,14,0,0,1,4.92,2.69l3.69-5.21a20.46,20.46,0,0,0-6.68-3.63,24.47,24.47,0,0,0-7.79-1.29,16.6,16.6,0,0,0-10.21,3.08,10.22,10.22,0,0,0-4.13,8.75q0,5.68,3.63,8.43a15.21,15.21,0,0,0,4.15,2.37,56.33,56.33,0,0,0,6.86,2,19.81,19.81,0,0,1,6.35,2.4,4.27,4.27,0,0,1,1.84,3.69,4.5,4.5,0,0,1-2,3.81,8.77,8.77,0,0,1-5.3,1.43q-6.67,0-12.88-5.38l-4.33,5.21a24.87,24.87,0,0,0,17,6.61q6.55,0,10.59-3.33a10.74,10.74,0,0,0,4-8.7q0-5.35-3.19-8.11t-9.48-4.27c-4.2-1-6.94-2-8.23-2.84a4.33,4.33,0,0,1-1.93-3.81,4.11,4.11,0,0,1,1.93-3.72,9.08,9.08,0,0,1,5-1.23A19,19,0,0,1,1344.52,551.37Zm-59,34.49h6.91V574.38l6-6.44L1312,585.86h8.2l-16.69-23,16.46-17.91h-8.79l-18.73,20v-20h-6.91Zm-27.11-20h-8.61V551.19h8.78q5.57,0,7.73,1.5c1.44,1,2.17,2.83,2.17,5.5s-.7,4.62-2.11,5.83S1262.29,565.83,1258.39,565.83Zm13.11-17.74q-4-3.17-13.4-3.16h-15.23v40.93h6.91V572.1h9.08l9.77,13.76h8.79L1266.7,571q8.85-2.62,8.84-12.76Q1275.54,551.25,1271.5,548.09Zm-37.35,17a20.26,20.26,0,0,0-6.21-15.11,22.45,22.45,0,0,0-30.68,0,21.48,21.48,0,0,0,0,30.21,22.42,22.42,0,0,0,30.68,0A20.23,20.23,0,0,0,1234.15,565.1Zm-7.09,0a14.57,14.57,0,0,1-4.18,10.51,14.36,14.36,0,0,1-20.55,0,15.28,15.28,0,0,1,0-21,14.36,14.36,0,0,1,20.55,0A14.57,14.57,0,0,1,1227.06,565.1Zm-91.87-20.17h-7.43l14.29,40.93h6.84l8.61-28.05h.47l8.61,28.05h6.85l14.28-40.93h-7.43L1170,574.38l-9.13-29.45h-6.21l-9.13,29.45Zm-10,6.32v-6.32h-31.73v6.32h12.41v34.61h6.91V551.25Zm-66.16-6.32v40.93h29.45v-6.5H1066v-11h19.61v-6.15H1066V551.43h21.84v-6.5Z"/><path class="cls-1" d="M1227.53,686.84l-23.77-30.57h-6.91V697.2h6.91V667.34l23.18,29.86h7.5V656.27h-6.91Zm-46.67,1.69a17.65,17.65,0,0,1-9.74,2.52,14.68,14.68,0,0,1-9.81-25,14.54,14.54,0,0,1,10.42-4,18.18,18.18,0,0,1,5.65.79,14.35,14.35,0,0,1,4.83,2.84l3.69-5.27q-5.85-5.16-14.7-5.15a20.77,20.77,0,0,0-15.07,6.09,21.7,21.7,0,0,0-.12,30.33,20.89,20.89,0,0,0,15.19,6q10.79,0,16.57-6.38v-14h-6.91Zm-46.6,8.67h6.91V656.27h-6.91Zm-18.39-34.49a13.8,13.8,0,0,1,4.92,2.7l3.69-5.22a20.41,20.41,0,0,0-6.67-3.63,24.78,24.78,0,0,0-7.79-1.28,16.63,16.63,0,0,0-10.22,3.07,10.27,10.27,0,0,0-4.13,8.75q0,5.68,3.63,8.44a15.81,15.81,0,0,0,4.16,2.37,57.37,57.37,0,0,0,6.85,2,19.25,19.25,0,0,1,6.35,2.4,4.28,4.28,0,0,1,1.85,3.69,4.49,4.49,0,0,1-2,3.8,8.79,8.79,0,0,1-5.3,1.44q-6.68,0-12.88-5.39l-4.34,5.21a24.91,24.91,0,0,0,17,6.62q6.56,0,10.6-3.34a10.75,10.75,0,0,0,4-8.7q0-5.36-3.19-8.1t-9.49-4.28c-4.19-1-6.94-2-8.22-2.84a4.32,4.32,0,0,1-1.94-3.8,4.11,4.11,0,0,1,1.94-3.72,9,9,0,0,1,4.94-1.23A19,19,0,0,1,1115.87,662.71Zm-56.79-6.44V697.2h29.45v-6.5H1066v-11h19.61V673.6H1066V662.77h21.84v-6.5Z"/><path class="cls-1" d="M1357.28,779.17a14,14,0,0,1,4.92,2.7l3.69-5.21a20.27,20.27,0,0,0-6.68-3.63,24.41,24.41,0,0,0-7.78-1.29,16.63,16.63,0,0,0-10.22,3.07,10.28,10.28,0,0,0-4.13,8.76q0,5.67,3.63,8.43a15.81,15.81,0,0,0,4.16,2.37,57.37,57.37,0,0,0,6.85,2,19.35,19.35,0,0,1,6.35,2.4,4.28,4.28,0,0,1,1.85,3.69,4.48,4.48,0,0,1-2,3.8,8.74,8.74,0,0,1-5.29,1.44q-6.67,0-12.89-5.39l-4.33,5.21a24.91,24.91,0,0,0,17,6.62q6.55,0,10.6-3.34a10.74,10.74,0,0,0,4-8.69c0-3.57-1.07-6.28-3.19-8.11s-5.29-3.26-9.49-4.28-6.94-2-8.23-2.84a4.33,4.33,0,0,1-1.93-3.8,4.13,4.13,0,0,1,1.93-3.72,9.08,9.08,0,0,1,5-1.23A19,19,0,0,1,1357.28,779.17Zm-45.61,14.47h-8.61V779h8.78q5.57,0,7.73,1.49t2.17,5.5q0,4-2.11,5.83C1318.23,793,1315.57,793.64,1311.67,793.64Zm13.11-17.74q-4-3.17-13.4-3.17h-15.23v40.93h6.91V799.9h9.08l9.78,13.76h8.78L1320,798.79q8.85-2.64,8.84-12.77Q1328.82,779.06,1324.78,775.9Zm-66.92-3.17v40.93h29.45v-6.5h-22.54V796.21h19.61v-6.15h-19.61V779.23h21.84v-6.5Zm-38.29,0v40.93H1249v-6.5h-22.54V796.21h19.61v-6.15h-19.61V779.23h21.84v-6.5ZM1201.3,803.3l-23.77-30.57h-6.91v40.93h6.91V783.8l23.18,29.86h7.5V772.73h-6.91Zm-49,10.36h6.91V772.73h-6.91Zm-16-8.66a17.8,17.8,0,0,1-9.75,2.51,13.75,13.75,0,0,1-9.93-4,15.36,15.36,0,0,1,.12-21,14.54,14.54,0,0,1,10.42-4,18.18,18.18,0,0,1,5.65.79,14.35,14.35,0,0,1,4.83,2.84l3.69-5.27q-5.85-5.14-14.7-5.15a20.79,20.79,0,0,0-15.07,6.09,21.7,21.7,0,0,0-.12,30.33,20.89,20.89,0,0,0,15.19,6q10.79,0,16.58-6.38v-14h-6.91Zm-46.61-1.7L1066,772.73h-6.91v40.93H1066V783.8l23.18,29.86h7.5V772.73h-6.91Z"/><path class="cls-1" d="M526.54,381.88a2.5,2.5,0,0,0-.69-.64,4.28,4.28,0,0,0-1.09-.49,10.07,10.07,0,0,0-1.6-.32,14.11,14.11,0,0,0-1.5-.12c-2-.05-4.08-.06-6.12-.06h-5.72c1.68-9,3.43-18,5-27.1a5.82,5.82,0,0,0,.07-.93,7.6,7.6,0,0,0-.38-2.35,5.42,5.42,0,0,0-.53-1.12,3.4,3.4,0,0,0-1-1,4.2,4.2,0,0,0-1-.51A3,3,0,0,0,511,347a3,3,0,0,0-1.67.51,3.69,3.69,0,0,0-.8.69,8.31,8.31,0,0,0-.77,1c-.2.32-.37.61-.5.81q-12.28,18.56-24.54,37.12c-1.52,2.29-3.31,4.57-4.84,7.14a5.56,5.56,0,0,0-.61,1.56,6.75,6.75,0,0,0-.19,1.61,6.31,6.31,0,0,0,.14,1.37,2.09,2.09,0,0,0,.27.64,2.17,2.17,0,0,0,.61.63,3.39,3.39,0,0,0,.87.44,8,8,0,0,0,1.21.32,9.88,9.88,0,0,0,1.15.13c1.22.06,2.44.08,3.63.08h9.92c-.91,5-1.7,9.38-2.52,13.74s-1.82,9-2.51,13.65h0a3.12,3.12,0,0,0,0,.52,4.18,4.18,0,0,0,.2,1.24,10.34,10.34,0,0,0,.56,1.41c.19.4.35.74.44,1l.7,2,1.86-1.08c.93-.54,1.92-1.08,2.9-1.7a2.65,2.65,0,0,0,.83-.84l.24-.39c9.45-14.23,18.93-28.45,28.31-42.75a7.9,7.9,0,0,0,.88-1.88,7.15,7.15,0,0,0,.35-2.13,4.65,4.65,0,0,0-.2-1.4A2.39,2.39,0,0,0,526.54,381.88ZM522.85,386q-14.06,21.44-28.3,42.74l-.18.3-.88.52-.11-.29-.05-.23c.67-4.47,1.64-9,2.49-13.52.93-5,1.83-10,2.9-15.85l.38-2.09H484.93c-1.17,0-2.32,0-3.45-.07a6.63,6.63,0,0,1-.87-.12,3.4,3.4,0,0,1,.08-.65,2,2,0,0,1,.21-.58c1.38-2.31,3.12-4.55,4.74-7q12.28-18.54,24.55-37.11l.48-.77a6.15,6.15,0,0,1,.35-.51h0a3.26,3.26,0,0,1,.23.69,3.85,3.85,0,0,1,.09.8l0,.33c-1.55,9.06-3.31,18.09-5,27.16a4.5,4.5,0,0,0-.06.78c0,.4,0,.79,0,1.54v1.78h1.78l7.49,0c2,0,4,0,6,.06a10.55,10.55,0,0,1,1.82.2l.09,0a3.83,3.83,0,0,1-.17.86A4,4,0,0,1,522.85,386Z"/><path class="cls-1" d="M431.09,305.91A140.47,140.47,0,0,0,331.76,545.7l1,1,0,.26H333a140.47,140.47,0,1,0,98.08-241ZM457.74,430.7a18.67,18.67,0,0,1,2.14.6,19.08,19.08,0,0,1,7.23,4.39A13.93,13.93,0,0,1,470,440a16,16,0,0,1,1.21,6.35v14.16c-.38.12-.76.23-1.1.37a10.84,10.84,0,0,0-3.42,2.1,9.39,9.39,0,0,0-2.58,4,10.72,10.72,0,0,0-.54,3.38,9.28,9.28,0,0,0,.07,1.18v11.67H399V471.13a17.6,17.6,0,0,0-.27-3.52,9.12,9.12,0,0,0-1.17-3,8.55,8.55,0,0,0-1.85-2.08,11,11,0,0,0-3.33-1.79v-15.1a20.35,20.35,0,0,1,.57-3.17,20.91,20.91,0,0,1,1.35-3.81,14.28,14.28,0,0,1,4.3-5.45,12.19,12.19,0,0,1,3.49-1.78,15.28,15.28,0,0,1,4.77-.7Zm31.57,86.21h0a10.31,10.31,0,0,1-.3,2.19,12.7,12.7,0,0,1-1.22,3.18,12.38,12.38,0,0,1-5,4.9c-2.54,1.41-6.18,2.45-11.46,2.45H387.2a15.51,15.51,0,0,1-2.19-.35,17.11,17.11,0,0,1-3.4-1.11,12.81,12.81,0,0,1-5.14-3.91,11.37,11.37,0,0,1-1.73-3.33,15.22,15.22,0,0,1-.69-4.69V470.76h0a5.77,5.77,0,0,1,.18-1.26,6.55,6.55,0,0,1,.69-1.73,6.71,6.71,0,0,1,2.79-2.65,14.15,14.15,0,0,1,6.73-1.38,20.51,20.51,0,0,1,6.43.83,6.86,6.86,0,0,1,2.34,1.26,4.47,4.47,0,0,1,.88,1.06,5.6,5.6,0,0,1,.62,1.94,15.56,15.56,0,0,1,.13,2.3c0,.18,0,.37,0,.56v31.9a7.41,7.41,0,0,0,.22,1.77,7.19,7.19,0,0,0,3.69,4.66,11.33,11.33,0,0,0,5.26,1.12h55.6a9.17,9.17,0,0,0,1.88-.2,8.28,8.28,0,0,0,2-.68,7.27,7.27,0,0,0,3-2.72,9.47,9.47,0,0,0,1.3-5.1V471.28l0-.18h0a5.22,5.22,0,0,1,0-.69,6.61,6.61,0,0,1,.25-1.82,5.4,5.4,0,0,1,.7-1.56,5.8,5.8,0,0,1,2.52-2.09,13.85,13.85,0,0,1,5.8-1,25,25,0,0,1,7.1.83,8.23,8.23,0,0,1,2.81,1.4,5.11,5.11,0,0,1,1.17,1.31,7.24,7.24,0,0,1,.95,2.69,21.62,21.62,0,0,1,.26,3.69v43.09ZM459.5,507H404a7.6,7.6,0,0,1-3.11-.54,3.27,3.27,0,0,1-1.08-.74,2.81,2.81,0,0,1-.7-1.23,3.41,3.41,0,0,1-.14-.9V487.4h64.71v15a5.57,5.57,0,0,1-.56,2.71,2.86,2.86,0,0,1-.8,1,3.61,3.61,0,0,1-1.52.72,4.68,4.68,0,0,1-1.2.15Zm68,35.77a136.33,136.33,0,0,1-190.42,2.32,5,5,0,0,1,.49-1.32,3.83,3.83,0,0,1,1-1.13,4.68,4.68,0,0,1,1.68-.76l.59-.1h25.57a7.3,7.3,0,0,1,3.15.65,5.7,5.7,0,0,1,1.44,1,6,6,0,0,1,1.18,1.61c.09.19.15.35.2.46v6.29h4.14v-6.89l-.07-.26a7.26,7.26,0,0,0-.45-1.2,9.77,9.77,0,0,0-5.72-5.17,11.76,11.76,0,0,0-3.87-.62H355.92V397.82h23.92a2.81,2.81,0,0,0,.83-.18,3.75,3.75,0,0,0,.93-.53,4,4,0,0,0,1.21-1.68,6.66,6.66,0,0,0,.44-2.53,16.06,16.06,0,0,0-.59-4c-.78-3.05-2.87-11.46-4.76-19.08-.95-3.82-1.85-7.44-2.51-10.11l-.79-3.19c-.18-.76-.29-1.19-.29-1.19h0v0a6.51,6.51,0,0,0-1.61-2.72,7.39,7.39,0,0,0-2.51-1.72,9.75,9.75,0,0,0-3.87-.73H342.75a7.6,7.6,0,0,0-.84,0,9.49,9.49,0,0,0-3.71.73,6.86,6.86,0,0,0-2.14,1.46,6.58,6.58,0,0,0-1.53,2.6l0,.07v.08l-8.68,36.1c0,.1-.07.27-.12.53a7.34,7.34,0,0,0-.14,1.41,5.84,5.84,0,0,0,.17,1.43,4.51,4.51,0,0,0,.5,1.2,4.14,4.14,0,0,0,1.67,1.56,5.41,5.41,0,0,0,2.46.54h21.43V537.63H341a8.43,8.43,0,0,0-1.35.16,8.63,8.63,0,0,0-2,.64,7.74,7.74,0,0,0-3.32,2.81,5.25,5.25,0,0,0-.39.7,136.31,136.31,0,0,1,96-231.88v116.5h-23a17.59,17.59,0,0,0-10.36,3,17.08,17.08,0,0,0-4.6,4.84,24,24,0,0,0-3.09,7.47,23.52,23.52,0,0,0-.58,3.64V459.8a33.29,33.29,0,0,0-3.77-.2,19,19,0,0,0-7.94,1.5,11.62,11.62,0,0,0-3.69,2.6,10.71,10.71,0,0,0-2.49,4.4,10.55,10.55,0,0,0-.41,2.66v45.48a17.23,17.23,0,0,0,2.72,9.75,15.78,15.78,0,0,0,4.35,4.35,20.74,20.74,0,0,0,6.74,2.89,20,20,0,0,0,3.3.54h7l-4,17.66,4,.92,4.24-18.58H464l4.63,18.73,4-1-4.39-17.74h3.13a28.73,28.73,0,0,0,12.33-2.39,17.34,17.34,0,0,0,5.54-4,16.43,16.43,0,0,0,3.66-6.67,15,15,0,0,0,.57-3.77V473.82a23.64,23.64,0,0,0-.48-5.2,10.62,10.62,0,0,0-1.54-3.65,9.29,9.29,0,0,0-2.19-2.29,13.39,13.39,0,0,0-5-2.2,31.27,31.27,0,0,0-7.23-.72c-.57,0-1.1,0-1.63.06V446.37a19.36,19.36,0,0,0-2.71-10.23,18.43,18.43,0,0,0-4.32-4.88,23.83,23.83,0,0,0-6.75-3.74,22.24,22.24,0,0,0-3.32-.93l-.17,0H434V310.08a136.32,136.32,0,0,1,93.5,232.69ZM329.77,393.59l0-.14,0-.36a3,3,0,0,1,.07-.63l0-.18v-.09l8.66-36.06a2.46,2.46,0,0,1,.55-.94,2.22,2.22,0,0,1,.6-.44,4,4,0,0,1,1.16-.4,6,6,0,0,1,1.12-.1h.48l.12,0h23.8a5.69,5.69,0,0,1,2.25.4,3.27,3.27,0,0,1,1.46,1.17,2.45,2.45,0,0,1,.25.45l0,.09c.15.59,1.77,7.16,3.58,14.43,1.89,7.64,4,16,4.77,19.12a12.1,12.1,0,0,1,.46,2.94,3.2,3.2,0,0,1-.08.79H330.35a1.47,1.47,0,0,1-.56-.08Z"/><path class="cls-1" d="M441.17,748a6.69,6.69,0,0,0,1-3.6,6.35,6.35,0,0,0-1.41-4.16,6.49,6.49,0,0,0-3.64-2.2,27.61,27.61,0,0,0-5.31-.33h-5.16v24.1h3.48V751.18h.41l8.24,10.64h4.33l-8.27-10.69a10.37,10.37,0,0,0,3.58-.74A6.12,6.12,0,0,0,441.17,748Zm-2.58-3.61a3.23,3.23,0,0,1-.52,1.82,2.93,2.93,0,0,1-1.44,1.17,9.25,9.25,0,0,1-3.18.39l-3.35,0v-6.61h3.45a9.35,9.35,0,0,1,3.15.36,2.86,2.86,0,0,1,1.36,1.12A3.07,3.07,0,0,1,438.59,744.4Z"/><path class="cls-1" d="M507.56,761.19a7.39,7.39,0,0,0,4.11,1.21,7,7,0,0,0,5-2,6.43,6.43,0,0,0,2.08-4.75,7,7,0,0,0-1.2-3.77,17.43,17.43,0,0,0-4.23-4.06c-1.66-1.23-2.67-2-2.9-2.24a4.76,4.76,0,0,1-1-1.35,2.82,2.82,0,0,1-.26-1.2,2.18,2.18,0,0,1,.7-1.65,2.56,2.56,0,0,1,1.86-.68,3.3,3.3,0,0,1,1.68.47,8.4,8.4,0,0,1,2,2.1l.36.48,2.81-2.13-.35-.47a11.11,11.11,0,0,0-3.16-3.12,6.71,6.71,0,0,0-3.33-.88,6.41,6.41,0,0,0-3.11.78,5.7,5.7,0,0,0-2.24,2.17,5.83,5.83,0,0,0-.8,3,6.34,6.34,0,0,0,1.33,3.86,21,21,0,0,0,3.69,3.25,18.5,18.5,0,0,1,3.8,3.54,3.34,3.34,0,0,1,.67,1.92,3.17,3.17,0,0,1-.45,1.62,3.3,3.3,0,0,1-1.31,1.22,4,4,0,0,1-1.89.47c-1.48,0-2.89-1-4.23-3.48l-.3-.54-3,1.78.27.49A10.8,10.8,0,0,0,507.56,761.19Z"/><polygon class="cls-1" points="385.74 761.82 386.33 761.82 389.21 761.82 389.21 737.72 385.74 737.72 385.74 761.82"/><polygon class="cls-1" points="330.61 761.82 334.13 761.82 334.13 741.15 339.24 741.15 339.24 737.72 325.5 737.72 325.5 741.15 330.61 741.15 330.61 761.82"/><polygon class="cls-1" points="291.14 761.82 291.73 761.82 294.61 761.82 294.61 737.72 291.14 737.72 291.14 761.82"/><polygon class="cls-1" points="358.34 758.39 347.59 758.39 347.59 750.57 358.34 750.57 358.34 747.14 347.59 747.14 347.59 741.15 358.44 741.15 358.44 737.72 344.12 737.72 344.12 761.82 344.71 761.82 358.34 761.82 358.34 758.39"/><polygon class="cls-1" points="486.69 761.82 487.28 761.82 500.92 761.82 500.92 758.39 490.17 758.39 490.17 750.57 500.92 750.57 500.92 747.14 490.17 747.14 490.17 741.15 501.01 741.15 501.01 737.72 486.69 737.72 486.69 761.82"/><path class="cls-1" d="M480.67,750.06a12.87,12.87,0,0,0-2-7.2,10.6,10.6,0,0,0-5.51-4.28,24.65,24.65,0,0,0-7.66-.86h-5.34v24.1h7.88a15.22,15.22,0,0,0,6.94-1.31,10.17,10.17,0,0,0,4.1-4.1A12.51,12.51,0,0,0,480.67,750.06Zm-17.1-8.91h1a26.49,26.49,0,0,1,6.91.62,7.53,7.53,0,0,1,4.16,3,9.25,9.25,0,0,1,1.5,5.34,8.7,8.7,0,0,1-1.38,5,7,7,0,0,1-3.76,2.8,23.92,23.92,0,0,1-6.4.56h-2.06Z"/><path class="cls-1" d="M556.44,759.1a12.1,12.1,0,0,0,3.33-8.85v-.6H548.71v3.4h7.15a7.17,7.17,0,0,1-2.53,4.12,8.52,8.52,0,0,1-5.6,1.86,10.4,10.4,0,0,1-5.08-1.26,9.2,9.2,0,0,1-3.61-3.44,8.9,8.9,0,0,1-1.3-4.61,8.57,8.57,0,0,1,1.26-4.49,9,9,0,0,1,3.55-3.38,10,10,0,0,1,4.85-1.25,10.57,10.57,0,0,1,4.21.93,13,13,0,0,1,4,2.73l.41.4,2.64-2.5-.45-.43a17,17,0,0,0-5.2-3.49,15,15,0,0,0-5.71-1.1,13.68,13.68,0,0,0-6.74,1.66,12.47,12.47,0,0,0-6.42,11,12.07,12.07,0,0,0,3,8.1,13.16,13.16,0,0,0,10.51,4.54A11.9,11.9,0,0,0,556.44,759.1Z"/><polygon class="cls-1" points="584.31 761.82 584.9 761.82 584.9 737.72 581.46 737.72 581.46 754.29 567.07 737.72 566.3 737.72 565.71 737.72 565.71 761.82 569.26 761.82 569.26 761.23 569.26 745.45 583.52 761.82 584.31 761.82"/><polygon class="cls-1" points="525.43 761.82 528.31 761.82 528.31 737.72 524.84 737.72 524.84 761.82 525.43 761.82"/><path class="cls-1" d="M407.53,737.14a12.3,12.3,0,0,0-6.27,1.68,12.13,12.13,0,0,0-4.57,4.64,12.73,12.73,0,0,0-1.68,6.41,12.1,12.1,0,0,0,3.68,8.87,12.37,12.37,0,0,0,9,3.66,12.68,12.68,0,0,0,8.94-21.61A12.5,12.5,0,0,0,407.53,737.14Zm9.26,12.61a9.38,9.38,0,0,1-1.19,4.7,8.68,8.68,0,0,1-3.32,3.32,9.25,9.25,0,0,1-4.65,1.22,9.07,9.07,0,0,1-9.07-9.13,9.32,9.32,0,0,1,1.2-4.71,9,9,0,0,1,3.35-3.35,8.76,8.76,0,0,1,4.52-1.25,9.15,9.15,0,0,1,4.61,1.25,9,9,0,0,1,3.36,3.31A9.16,9.16,0,0,1,416.79,749.75Z"/><path class="cls-1" d="M369.24,737.72h-5.16v24.1h3.47V751.18H368l8.24,10.64h4.33l-8.28-10.69a10.48,10.48,0,0,0,3.59-.74,6.17,6.17,0,0,0,2.78-2.38,6.69,6.69,0,0,0,1-3.6,6.3,6.3,0,0,0-1.42-4.16,6.49,6.49,0,0,0-3.64-2.2A27.56,27.56,0,0,0,369.24,737.72Zm6.28,4.91a3.23,3.23,0,0,1,.53,1.77,3.32,3.32,0,0,1-.53,1.82,2.86,2.86,0,0,1-1.43,1.17,9.33,9.33,0,0,1-3.18.39l-3.36,0v-6.61H371a9.42,9.42,0,0,1,3.16.36A3,3,0,0,1,375.52,742.63Z"/><polygon class="cls-1" points="320.05 761.82 320.63 761.82 320.63 737.72 317.19 737.72 317.19 754.29 302.8 737.72 302.03 737.72 301.44 737.72 301.44 761.82 304.99 761.82 304.99 761.23 304.99 745.45 319.26 761.82 320.05 761.82"/><path class="cls-1" d="M269.74,796.92c-.77-.77-1.39-1.38-1.94-1.9.74-.56,1.51-1.18,2.32-1.89l.46-.41-2.38-2.51-.43.4c-.59.54-1.41,1.2-2.42,2l-1.92-1.94-3-3.2a15.35,15.35,0,0,0,2.85-3,5.24,5.24,0,0,0,.9-2.76,4.43,4.43,0,0,0-.72-2.39,4.92,4.92,0,0,0-2.05-1.76,6.56,6.56,0,0,0-2.87-.64,6.22,6.22,0,0,0-4.19,1.46,4.13,4.13,0,0,0-1.53,3.28,5.27,5.27,0,0,0,.6,2.33,19.31,19.31,0,0,0,2.12,3,19.59,19.59,0,0,0-4.09,4.13,7.08,7.08,0,0,0-1.17,3.75A5.65,5.65,0,0,0,252,799a6.56,6.56,0,0,0,4.66,1.68,11,11,0,0,0,4-.74,19.43,19.43,0,0,0,4.39-2.77l2.84,2.93h4.73l-.83-1C271.23,798.45,270.54,797.72,269.74,796.92Zm-13.27-14.43a1.69,1.69,0,0,1-.23-.87,1.15,1.15,0,0,1,.54-.94,2.58,2.58,0,0,1,1.62-.47,2.9,2.9,0,0,1,1.7.46,1.06,1.06,0,0,1,.53.9,2.35,2.35,0,0,1-.49,1.25,10.28,10.28,0,0,1-1.94,2A17,17,0,0,1,256.47,782.49Zm6.18,12.19a17.58,17.58,0,0,1-3.56,2.22,5.33,5.33,0,0,1-2.16.45,3.29,3.29,0,0,1-2.32-.85,2.45,2.45,0,0,1-.91-1.87,3.77,3.77,0,0,1,.8-2.08,16.92,16.92,0,0,1,3.27-3c.62.7,1.21,1.35,1.73,1.9l.43-.41-.43.42Z"/><polygon class="cls-1" points="288.73 800.11 289.32 800.11 302.95 800.11 302.95 796.68 292.2 796.68 292.2 788.86 302.95 788.86 302.95 785.44 292.2 785.44 292.2 779.44 303.05 779.44 303.05 776.01 288.73 776.01 288.73 800.11"/><polygon class="cls-1" points="326.06 800.11 326.65 800.11 340.29 800.11 340.29 796.68 329.54 796.68 329.54 788.86 340.29 788.86 340.29 785.44 329.54 785.44 329.54 779.44 340.38 779.44 340.38 776.01 326.06 776.01 326.06 800.11"/><path class="cls-1" d="M552,775.43a12.42,12.42,0,0,0-10.84,6.32,12.83,12.83,0,0,0-1.67,6.41,12.06,12.06,0,0,0,3.68,8.86,12.67,12.67,0,0,0,21.65-9,12.17,12.17,0,0,0-3.69-9A12.48,12.48,0,0,0,552,775.43ZM561.22,788a9.29,9.29,0,0,1-1.2,4.7,8.61,8.61,0,0,1-3.32,3.32,9.32,9.32,0,0,1-4.64,1.22,9,9,0,0,1-9.07-9.13,9.32,9.32,0,0,1,1.2-4.71,9.21,9.21,0,0,1,7.87-4.6,9.14,9.14,0,0,1,4.6,1.25A8.83,8.83,0,0,1,560,783.4,9.06,9.06,0,0,1,561.22,788Z"/><polygon class="cls-1" points="312.04 776.01 308.56 776.01 308.56 800.11 309.15 800.11 320.86 800.11 320.86 796.72 312.04 796.72 312.04 776.01"/><polygon class="cls-1" points="526.86 791.28 520.86 776.01 519.58 776.01 513.5 791.28 509.17 776.01 505.59 776.01 512.42 800.11 512.87 800.11 513.3 800.11 513.7 800.11 520.23 783.78 526.63 800.11 527.9 800.11 534.83 776.01 531.26 776.01 526.86 791.28"/><path class="cls-1" d="M442.66,793.77a9.6,9.6,0,0,1-7.61,3.57,9.41,9.41,0,0,1-6.84-2.64,8.76,8.76,0,0,1-2.69-6.57,9.12,9.12,0,0,1,1.21-4.7,8.73,8.73,0,0,1,3.4-3.31,9.63,9.63,0,0,1,4.78-1.25,9.88,9.88,0,0,1,4.35,1,9.35,9.35,0,0,1,3.38,2.78l.36.47,2.73-2.1-.33-.46a11.86,11.86,0,0,0-4.46-3.75,13.58,13.58,0,0,0-6.06-1.33,12.8,12.8,0,0,0-9.25,3.61,11.92,11.92,0,0,0-3.71,8.89,12.7,12.7,0,0,0,3.06,8.55,12.54,12.54,0,0,0,9.93,4.21,14.07,14.07,0,0,0,6-1.25,12.18,12.18,0,0,0,4.49-3.54l.37-.48L443,793.35Z"/><path class="cls-1" d="M460.68,776l-.15.34L449.3,800.11h3.86l3.57-7.54h9.13l3.6,7.54h3.78L462,776Zm.65,6.84,3,6.32h-6Z"/><path class="cls-1" d="M621.43,786.1c-1.66-1.23-2.66-2-2.9-2.24a5,5,0,0,1-1-1.35,3,3,0,0,1-.26-1.2,2.18,2.18,0,0,1,.7-1.65,2.57,2.57,0,0,1,1.86-.68,3.17,3.17,0,0,1,1.68.46,8.68,8.68,0,0,1,2,2.11l.35.48,2.81-2.13-.34-.47a11.13,11.13,0,0,0-3.17-3.12,6.7,6.7,0,0,0-3.32-.88,6.48,6.48,0,0,0-3.12.78,5.7,5.7,0,0,0-2.24,2.17,5.93,5.93,0,0,0-.8,3,6.35,6.35,0,0,0,1.34,3.86,20.43,20.43,0,0,0,3.68,3.25,18.24,18.24,0,0,1,3.8,3.54,3.31,3.31,0,0,1,.67,1.92,3.08,3.08,0,0,1-.45,1.62,3.24,3.24,0,0,1-1.31,1.22,4.1,4.1,0,0,1-1.89.47c-1.48,0-2.89-1-4.23-3.48l-.29-.54-3,1.77.28.5a10.78,10.78,0,0,0,3.32,4,7.43,7.43,0,0,0,4.11,1.21,7,7,0,0,0,5-2,6.42,6.42,0,0,0,2.07-4.75,6.88,6.88,0,0,0-1.2-3.77A17.24,17.24,0,0,0,621.43,786.1Z"/><polygon class="cls-1" points="609.7 776.01 604.89 776.01 596.56 783.84 596.56 776.01 593.04 776.01 593.04 800.11 593.63 800.11 596.56 800.11 596.56 790.34 605.75 800.11 610.43 800.11 598.03 786.91 609.7 776.01"/><path class="cls-1" d="M582.82,788.68a6.17,6.17,0,0,0,2.78-2.38,6.69,6.69,0,0,0,1-3.6,6.3,6.3,0,0,0-1.42-4.16,6.49,6.49,0,0,0-3.64-2.2,27.56,27.56,0,0,0-5.3-.33h-5.16v24.1h3.47V789.47h.42l8.24,10.64h4.33l-8.28-10.69A10.48,10.48,0,0,0,582.82,788.68Zm-4.94-2.61-3.36,0v-6.62H578a9.31,9.31,0,0,1,3.15.36,2.93,2.93,0,0,1,1.37,1.12,3.23,3.23,0,0,1,.53,1.77,3.32,3.32,0,0,1-.53,1.82,2.86,2.86,0,0,1-1.43,1.17A9.33,9.33,0,0,1,577.88,786.07Z"/><polygon class="cls-1" points="481.49 776.01 478.01 776.01 478.01 800.11 478.61 800.11 490.3 800.11 490.3 796.72 481.49 796.72 481.49 776.01"/><path class="cls-1" d="M365.58,793.77a9.61,9.61,0,0,1-7.61,3.57,9.39,9.39,0,0,1-6.84-2.64,8.76,8.76,0,0,1-2.69-6.57,9.21,9.21,0,0,1,1.2-4.7,8.87,8.87,0,0,1,3.4-3.31,9.67,9.67,0,0,1,4.79-1.25,9.91,9.91,0,0,1,4.35,1,9.35,9.35,0,0,1,3.38,2.78l.36.47,2.73-2.1-.34-.46a11.83,11.83,0,0,0-4.45-3.75,13.58,13.58,0,0,0-6.06-1.33,12.76,12.76,0,0,0-9.25,3.61,11.88,11.88,0,0,0-3.71,8.89,12.38,12.38,0,0,0,13,12.76,14.13,14.13,0,0,0,6-1.25,12.26,12.26,0,0,0,4.49-3.54l.37-.48-2.73-2.07Z"/><path class="cls-1" d="M402.81,788.68a6.17,6.17,0,0,0,2.78-2.38,6.69,6.69,0,0,0,1-3.6,6.24,6.24,0,0,0-1.41-4.16,6.49,6.49,0,0,0-3.64-2.2,27.61,27.61,0,0,0-5.31-.33H391v24.1h3.47V789.47h.41l8.25,10.64h4.33l-8.28-10.69A10.48,10.48,0,0,0,402.81,788.68Zm-4.94-2.61-3.36,0v-6.62H398a9.35,9.35,0,0,1,3.15.36,2.93,2.93,0,0,1,1.37,1.12,3.14,3.14,0,0,1,.52,1.77,3.23,3.23,0,0,1-.52,1.82,2.93,2.93,0,0,1-1.44,1.17A9.22,9.22,0,0,1,397.87,786.07Z"/><polygon class="cls-1" points="372.31 779.44 377.42 779.44 377.42 800.11 380.94 800.11 380.94 779.44 386.05 779.44 386.05 776.01 372.31 776.01 372.31 779.44"/><polygon class="cls-1" points="412.69 800.11 413.29 800.11 416.17 800.11 416.17 776.01 412.69 776.01 412.69 800.11"/><path class="cls-1" d="M517.5,713.19c.81,0,1.64.07,2.48.07a54.67,54.67,0,0,0,10.48-1.09q13.38-2.56,21.94-10.5c8.06-7.49,12.09-18,12.08-31.37s-4-23.88-12.08-31.38a42.53,42.53,0,0,0-21.29-10.5,74.26,74.26,0,0,0-13.6-1l-21.24-.06H484.49l-.06,85.84H517.5Zm29.77-17.12c-6.76,6.34-16.55,9.54-29.47,9.55h-26V635h26c.7-.06,1.43-.09,2.2-.09a46.93,46.93,0,0,1,8.35.85c7.89,1.4,14.16,4.32,18.87,8.72,6.41,6,9.63,14.55,9.64,25.84s-3.23,19.79-9.64,25.77l.41.44Z"/><polygon class="cls-1" points="580.22 627.17 580.22 713.25 646.25 713.25 646.25 705.79 587.86 705.79 587.86 634.68 646.25 634.68 646.25 634.09 646.25 627.17 580.22 627.17"/><polygon class="cls-1" points="646.01 689.11 646.01 688.52 646.01 681.72 596.43 681.72 596.43 689.11 646.01 689.11"/><polygon class="cls-1" points="331.02 643.76 367.75 713.37 376.6 713.37 335.62 635.18 335.1 635.45 335.62 635.17 331.02 626.51 326.16 635.54 326.16 635.6 285.31 713.37 294.51 713.37 331.02 643.76"/><polygon class="cls-1" points="398.23 644.27 461.47 706.98 467.8 713.25 468.1 713.25 468.69 713.25 468.69 627.29 468.1 627.29 461.3 627.29 461.3 696.39 398.06 633.67 390.83 626.45 390.83 713.25 398.23 713.25 398.23 644.27"/><path class="cls-1" d="M258.22,655.25h0a30.61,30.61,0,0,0-11.15-2.11,9.7,9.7,0,0,1-7.16-3,9.6,9.6,0,0,1-3-7A10.12,10.12,0,0,1,254.21,636a9.6,9.6,0,0,1,3,7.15v.59h7.28v-.59a16.81,16.81,0,0,0-5.08-12.31,17,17,0,0,0-12.37-5.08,17.45,17.45,0,0,0-17.45,17.39,16.61,16.61,0,0,0,5.14,12.26c.17.17.47.44.91.84h0a17.09,17.09,0,0,0,11.39,4.17,23,23,0,0,1,16.86,6.93,23.12,23.12,0,0,1,0,33.11,24,24,0,0,1-33.55.18,22.51,22.51,0,0,1-7.15-16.22l0-.57h-7.27v.6a29.25,29.25,0,0,0,9.29,21.36,31.31,31.31,0,0,0,43.84-.19,30.09,30.09,0,0,0,3.49-39.22A30.1,30.1,0,0,0,258.22,655.25Z"/><polyline class="cls-1" points="808.49 270.38 808.49 855.22 814.75 855.22 814.75 270.38"/><rect class="cls-2" width="1641.6" height="1125.6"/></g></g></svg>